<?xml version="1.0" standalone="no"?><!DOCTYPE svg PUBLIC "-//W3C//DTD SVG 1.1//EN" "http://www.w3.org/Graphics/SVG/1.1/DTD/svg11.dtd"><svg t="1619745386153" class="icon" viewBox="0 0 1024 1024" version="1.1" xmlns="http://www.w3.org/2000/svg" p-id="27094" xmlns:xlink="http://www.w3.org/1999/xlink" width="200" height="200"><defs><style type="text/css"></style></defs><path d="M277.333333 746.666667a32 32 0 0 0-32 32v85.333333a32 32 0 0 0 64 0v-85.333333A32 32 0 0 0 277.333333 746.666667zM746.666667 746.666667a32 32 0 0 0-32 32v85.333333a32 32 0 0 0 64 0v-85.333333A32 32 0 0 0 746.666667 746.666667zM832 362.666667h-14.229333l-38.933334-175.210667C768.298667 139.989333 730.368 106.666667 686.869333 106.666667H337.130667c-43.498667 0-81.429333 33.322667-91.989334 80.789333L206.229333 362.666667H192a128 128 0 0 0-128 128v85.333333a128 128 0 0 0 128 128h640a128 128 0 0 0 128-128v-85.333333a128 128 0 0 0-128-128zM307.626667 201.344C311.573333 183.573333 323.989333 170.666667 337.130667 170.666667h349.717333c13.141333 0 25.557333 12.906667 29.504 30.677333L752.213333 362.666667H271.786667l35.84-161.322667zM277.333333 618.666667a85.333333 85.333333 0 1 1 0-170.666667 85.333333 85.333333 0 0 1 0 170.666667z m469.333334 0a85.333333 85.333333 0 1 1 0-170.666667 85.333333 85.333333 0 0 1 0 170.666667z" fill="#0367FD" p-id="27095"></path></svg>