<?xml version="1.0" standalone="no"?><!DOCTYPE svg PUBLIC "-//W3C//DTD SVG 1.1//EN" "http://www.w3.org/Graphics/SVG/1.1/DTD/svg11.dtd"><svg t="1619745320832" class="icon" viewBox="0 0 1024 1024" version="1.1" xmlns="http://www.w3.org/2000/svg" p-id="25211" xmlns:xlink="http://www.w3.org/1999/xlink" width="200" height="200"><defs><style type="text/css"></style></defs><path d="M848.11 852H175.89a90.1 90.1 0 0 1-90-90V262a90.1 90.1 0 0 1 90-90h672.22a90.1 90.1 0 0 1 90 90v500a90.1 90.1 0 0 1-90 90zM175.89 232a30 30 0 0 0-30 30v500a30 30 0 0 0 30 30h672.22a30 30 0 0 0 30-30V262a30 30 0 0 0-30-30z" fill="#666666" p-id="25212"></path><path d="M379.75 636.61c-78 0-141.42-63.44-141.42-141.42s63.44-141.42 141.42-141.42 141.42 63.44 141.42 141.42-63.44 141.42-141.42 141.42z m0-222.84a81.42 81.42 0 1 0 81.42 81.42 81.51 81.51 0 0 0-81.42-81.42z" fill="#666666" p-id="25213"></path><path d="M205.47 852a30 30 0 0 1-29.9-28c-0.39-5.8-0.58-11.71-0.58-17.54 0-60.6 20.66-117.76 58.17-161 38.56-44.4 90.17-68.85 145.34-68.85s106.78 24.45 145.34 68.85c37.51 43.2 58.17 100.36 58.17 161a30 30 0 0 1-60 0c0-93.63-64.38-169.81-143.51-169.81S235 712.78 235 806.41c0 4.51 0.15 9.07 0.45 13.54a30 30 0 0 1-27.94 31.93c-0.69 0.05-1.37 0.12-2.04 0.12z m586.38-368H613a30 30 0 0 1 0-60h178.85a30 30 0 0 1 0 60z m-10 125.69H709.4a30 30 0 0 1 0-60h72.44a30 30 0 0 1 0 60z m0-251.37h-105.2a30 30 0 0 1 0-60h105.2a30 30 0 0 1 0 60z" fill="#666666" p-id="25214"></path></svg>