<?xml version="1.0" standalone="no"?><!DOCTYPE svg PUBLIC "-//W3C//DTD SVG 1.1//EN" "http://www.w3.org/Graphics/SVG/1.1/DTD/svg11.dtd"><svg t="1619744607259" class="icon" viewBox="0 0 1820 1024" version="1.1" xmlns="http://www.w3.org/2000/svg" p-id="14279" xmlns:xlink="http://www.w3.org/1999/xlink" width="355.46875" height="200"><defs><style type="text/css"></style></defs><path d="M990.435556 921.6H582.542222c-15.075556 0-27.306667-12.231111-27.306666-27.306667V129.706667c0-15.075556 12.231111-27.306667 27.306666-27.306667h655.36c15.075556 0 27.306667 12.231111 27.306667 27.306667v500.053333c0 7.585185 6.068148 13.653333 13.653333 13.653333s13.653333-6.068148 13.653334-13.653333V129.706667c0-30.151111-24.462222-54.613333-54.613334-54.613334H582.542222c-30.151111 0-54.613333 24.462222-54.613333 54.613334v764.586666c0 30.151111 24.462222 54.613333 54.613333 54.613334h407.893334c7.585185 0 13.653333-6.068148 13.653333-13.653334s-6.068148-13.653333-13.653333-13.653333z" p-id="14280"></path><path d="M1005.795556 498.346667h-81.92v-81.92c0-7.585185-6.068148-13.653333-13.653334-13.653334s-13.653333 6.068148-13.653333 13.653334V512c0 7.585185 6.068148 13.653333 13.653333 13.653333h95.573334c7.585185 0 13.653333-6.068148 13.653333-13.653333s-6.068148-13.653333-13.653333-13.653333z" p-id="14281"></path><path d="M1288.722963 925.866667l-245.191111-258.465186c43.70963-37.546667 71.395556-93.202963 71.395555-155.401481 0-113.114074-91.685926-204.8-204.8-204.8s-204.8 91.685926-204.8 204.8 91.685926 204.8 204.8 204.8c41.054815 0 79.265185-12.136296 111.312593-32.900741l247.371852 260.740741c5.214815 5.499259 13.842963 5.688889 19.342222 0.474074 5.594074-5.12 5.783704-13.748148 0.568889-19.247407zM732.728889 512c0.18963-98.038519 79.454815-177.303704 177.493333-177.493333 98.038519 0.18963 177.303704 79.454815 177.493334 177.493333-0.18963 98.038519-79.454815 177.303704-177.493334 177.493333-98.038519-0.18963-177.303704-79.454815-177.493333-177.493333z" p-id="14282"></path></svg>