<?xml version="1.0" standalone="no"?><!DOCTYPE svg PUBLIC "-//W3C//DTD SVG 1.1//EN" "http://www.w3.org/Graphics/SVG/1.1/DTD/svg11.dtd"><svg t="1619743906961" class="icon" viewBox="0 0 1024 1024" version="1.1" xmlns="http://www.w3.org/2000/svg" p-id="1982" xmlns:xlink="http://www.w3.org/1999/xlink" width="200" height="200"><defs><style type="text/css"></style></defs><path d="M308.565333 149.333333l407.872 0.554667c7.082667 0 13.632 3.797333 17.173334 9.92l204.416 352.938667c3.541333 6.122667 3.562667 13.653333 0.021333 19.797333L734.613333 884.906667a19.754667 19.754667 0 0 1-17.152 9.856l-407.872-0.554667a19.882667 19.882667 0 0 1-17.173333-9.92L88 531.370667a19.754667 19.754667 0 0 1-0.021333-19.776L291.413333 159.210667A19.754667 19.754667 0 0 1 308.565333 149.333333z m34.410667 59.413334a19.754667 19.754667 0 0 0-17.152 9.877333l-169.173333 293.034667a19.754667 19.754667 0 0 0 0 19.797333l170.026666 293.525333a19.882667 19.882667 0 0 0 17.173334 9.92l339.2 0.448a19.754667 19.754667 0 0 0 17.152-9.877333l169.173333-293.034667a19.754667 19.754667 0 0 0 0-19.797333l-170.026667-293.504a19.882667 19.882667 0 0 0-17.173333-9.92z m168.874667 135.232a181.333333 181.333333 0 1 1 0 362.666666 181.333333 181.333333 0 0 1 0-362.666666z m0 68.266666a113.066667 113.066667 0 1 0 0 226.133334 113.066667 113.066667 0 0 0 0-226.133334z" fill="#000000" p-id="1983"></path></svg>