<?xml version="1.0" standalone="no"?><!DOCTYPE svg PUBLIC "-//W3C//DTD SVG 1.1//EN" "http://www.w3.org/Graphics/SVG/1.1/DTD/svg11.dtd"><svg t="1619745206663" class="icon" viewBox="0 0 1024 1024" version="1.1" xmlns="http://www.w3.org/2000/svg" p-id="23992" xmlns:xlink="http://www.w3.org/1999/xlink" width="200" height="200"><defs><style type="text/css"></style></defs><path d="M990.266272 1023.923367a33.718494 33.718494 0 0 1-33.718494-33.718494V384.237562L503.677755 74.79375 67.437079 383.869724v606.335149a33.718494 33.718494 0 0 1-67.436987 0v-623.792133a33.718494 33.718494 0 0 1 14.223074-27.587858l469.606657-332.586961a33.718494 33.718494 0 0 1 38.515716-0.321858l486.941028 332.67892a33.718494 33.718494 0 0 1 14.698198 27.817757v623.792133a33.718494 33.718494 0 0 1-33.718493 33.718494z" fill="#474747" p-id="23993"></path><path d="M431.121687 656.943543h-127.455906a81.30755 81.30755 0 0 1-81.230917-81.230917v-127.440579a81.30755 81.30755 0 0 1 81.230917-81.230917h127.440579a81.30755 81.30755 0 0 1 81.230917 81.230917v127.440579a81.30755 81.30755 0 0 1-81.21559 81.230917z m-127.455906-222.450099a13.793929 13.793929 0 0 0-13.793929 13.79393v127.440579a13.793929 13.793929 0 0 0 13.793929 13.793929h127.440579a13.793929 13.793929 0 0 0 13.79393-13.793929v-127.455906a13.793929 13.793929 0 0 0-13.79393-13.793929zM431.121687 979.476262h-127.455906a81.30755 81.30755 0 0 1-81.230917-81.230917v-127.409926a81.30755 81.30755 0 0 1 81.230917-81.230917h127.440579a81.30755 81.30755 0 0 1 81.230917 81.230917v127.409926a81.30755 81.30755 0 0 1-81.21559 81.230917z m-127.455906-222.419446a13.793929 13.793929 0 0 0-13.793929 13.793929v127.3946a13.793929 13.793929 0 0 0 13.793929 13.793929h127.440579a13.793929 13.793929 0 0 0 13.79393-13.793929v-127.409926a13.793929 13.793929 0 0 0-13.79393-13.793929z" fill="#474747" p-id="23994"></path></svg>