<?xml version="1.0" standalone="no"?><!DOCTYPE svg PUBLIC "-//W3C//DTD SVG 1.1//EN" "http://www.w3.org/Graphics/SVG/1.1/DTD/svg11.dtd"><svg t="1619744445777" class="icon" viewBox="0 0 1024 1024" version="1.1" xmlns="http://www.w3.org/2000/svg" p-id="11972" xmlns:xlink="http://www.w3.org/1999/xlink" width="200" height="200"><defs><style type="text/css"></style></defs><path d="M292.5 210.2c15.2 0 27.5-12.3 27.5-27.5v-73.5c0-15.2-12.3-27.5-27.5-27.5S265 94 265 109.2v73.5c0 15.2 12.3 27.5 27.5 27.5zM464 210.2c15.2 0 27.5-12.3 27.5-27.5v-73.5c0-15.2-12.3-27.5-27.5-27.5s-27.5 12.3-27.5 27.5v73.5c-0.1 15.2 12.3 27.5 27.5 27.5z" p-id="11973"></path><path d="M604.4 841.9l-43.7-5.6-3.1-8.8c-2.1-5.9-3.8-11.4-5.1-16.7-2.6-10.3-4.5-20.9-5.5-31.6l-0.9-9.3 37.4-23.5c0.9-9.3 2.6-18.6 5.1-27.8l-27.1-34.7 4-8.4c7.2-15.1 16.3-29.3 27.1-42.3l6-7.2 42.9 10c6.7-5.6 14-10.7 21.7-15.2l5.1-43.9 8.8-3.2c6.2-2.3 12.5-4.2 18.8-5.8 1.5-0.4 3.1-0.6 4.6-1V203.4c0-32.9-26.7-59.5-59.5-59.5H505.5v44.9c0 22.2-18.1 40.3-40.3 40.3s-40.3-18.1-40.3-40.3v-44.9H334v44.9c0 22.2-18.1 40.3-40.3 40.3s-40.3-18.1-40.3-40.3v-44.9H130.3c-32.9 0-59.5 26.7-59.5 59.5v650.3c0 32.9 26.6 59.5 59.5 59.5h486.3l-4.4-3.6 9.5-43c-6.5-7.6-12.3-15.9-17.3-24.7zM395 696.8H217.1c-13.9 0-25.2-11.3-25.2-25.2s11.3-25.2 25.2-25.2H395c13.9 0 25.2 11.3 25.2 25.2S409 696.8 395 696.8z m114.4-143H217.1c-13.9 0-25.2-11.3-25.2-25.2s11.3-25.2 25.2-25.2h292.3c13.9 0 25.2 11.3 25.2 25.2s-11.2 25.2-25.2 25.2z m0-133.5H217.1c-13.9 0-25.2-11.3-25.2-25.2 0-13.9 11.3-25.2 25.2-25.2h292.3c13.9 0 25.2 11.3 25.2 25.2 0 13.9-11.2 25.2-25.2 25.2z" p-id="11974"></path><path d="M917.1 764.8l36.1-22.7c-0.9-9.7-2.5-19.5-5.1-29.2-1.4-5.3-3-10.4-4.7-15.4l-42.2-5.4c-6.5-12.7-14.6-24.3-24.1-34.4l9.2-41.5c-11.9-9.7-24.8-17.9-38.7-24.3L814 618.2c-12.7-4-26-6.4-39.7-6.8l-22.7-36c-9.3 0.9-18.6 2.6-27.9 5-5.9 1.5-11.7 3.3-17.4 5.4l-4.9 42.3c-11.7 6.1-22.3 13.5-31.7 22.2l-41.3-9.7c-10 11.9-18.4 25.1-25.1 39.1l26.2 33.5c-4.1 12.7-6.7 26-7.2 39.7l-36.1 22.7c0.9 9.7 2.5 19.5 5.1 29.2 1.4 5.3 3 10.4 4.7 15.4l42.2 5.4c6.5 12.7 14.6 24.3 24.1 34.4l-9.2 41.5c11.9 9.7 24.8 17.9 38.7 24.3l33.7-26.4c12.7 4 26 6.4 39.7 6.8l22.7 36c9.3-0.9 18.6-2.6 27.9-5 5.9-1.5 11.7-3.3 17.4-5.4l4.9-42.3c11.7-6.1 22.3-13.5 31.7-22.2l41.3 9.7c10-11.9 18.4-25.1 25.1-39.1L910 804.4c4.1-12.6 6.6-25.9 7.1-39.6zM790.3 839c-44.2 11.4-89.3-15.2-100.7-59.5-11.4-44.2 15.2-89.3 59.5-100.7 44.2-11.4 89.3 15.2 100.7 59.5 11.4 44.2-15.3 89.3-59.5 100.7z" p-id="11975"></path><path d="M745.088719 794.074156a42.8 42.8 0 1 0 49.621778-69.749833 42.8 42.8 0 1 0-49.621778 69.749833Z" p-id="11976"></path></svg>