<?xml version="1.0" standalone="no"?><!DOCTYPE svg PUBLIC "-//W3C//DTD SVG 1.1//EN" "http://www.w3.org/Graphics/SVG/1.1/DTD/svg11.dtd"><svg t="1619876008128" class="icon" viewBox="0 0 1025 1024" version="1.1" xmlns="http://www.w3.org/2000/svg" p-id="2121" xmlns:xlink="http://www.w3.org/1999/xlink" width="200.1953125" height="200"><defs><style type="text/css"></style></defs><path d="M511.974925 0.024559c-282.860993 0-511.974929 229.238779-511.974929 511.973906s229.113936 511.974929 511.974929 511.974929c282.73615 0 511.974929-229.239802 511.974929-511.974929S794.710052 0.024559 511.974925 0.024559zM511.974925 959.976912c-247.01973 0-447.978447-200.928018-447.978447-447.977423s200.958717-447.977423 447.978447-447.977423c247.018706 0 447.977423 200.928018 447.977423 447.977423S758.993631 959.976912 511.974925 959.976912z" p-id="2122"></path><path d="M511.974925 128.017524c-212.11479 0-383.980941 171.929596-383.980941 383.980941 0 201.240126 154.898728 366.044448 351.982188 382.355932l0 1.625009 63.997506 0 0-1.625009c197.084484-16.311485 351.983211-181.115806 351.983211-382.355932C895.955866 299.94712 724.088692 128.017524 511.974925 128.017524zM511.974925 160.016277c172.209981 0 315.640528 124.431863 345.857707 287.986729l-182.365262 0-327.108709 0-182.241442 0C196.333374 284.44814 339.76392 160.016277 511.974925 160.016277zM611.781972 511.999488l-66.715404 127.993988-1.093913 0-63.997506 0-1.187034 0-66.652983-127.993988L611.781972 511.999488zM159.991714 511.999488l179.959472 0 86.652459 166.366909c0 14.18608 12.749359 25.623562 28.499049 25.623562l24.873479 0 0 158.367732C300.859904 846.108628 159.991714 695.2407 159.991714 511.999488zM543.972655 862.357691l0-158.367732 24.873479 0c15.74969 0 28.374206-11.437482 28.374206-25.623562l86.74558-166.366909 179.991194 0C863.957113 695.2407 723.088923 846.108628 543.972655 862.357691z" p-id="2123"></path></svg>